<svg viewBox="0 0 16 16" xmlns="http://www.w3.org/2000/svg" xmlns:xlink="http://www.w3.org/1999/xlink" width="16.000000" height="16.000000" fill="none">
	<rect id="trash-filled" width="16.000000" height="16.000000" x="0.000000" y="0.000000" />
	<path id="icon" d="M4.75 3.75L4.75 4.25L2.75 4.25C2.33579 4.25 2 4.58579 2 5C2 5.41421 2.33579 5.75 2.75 5.75L3.51389 5.75L3.89504 12.6109C3.95392 13.6708 4.8305 14.5 5.89196 14.5L10.108 14.5C11.1695 14.5 12.0461 13.6708 12.1049 12.6109L12.4861 5.75L13.25 5.75C13.6642 5.75 14 5.41421 14 5C14 4.58579 13.6642 4.25 13.25 4.25L11.25 4.25L11.25 3.75C11.25 2.50736 10.2426 1.5 9 1.5L7 1.5C5.75736 1.5 4.75 2.50736 4.75 3.75ZM7 3C6.58579 3 6.25 3.33579 6.25 3.75L6.25 4.25L9.75 4.25L9.75 3.75C9.75 3.33579 9.41421 3 9 3L7 3ZM7.25 7.75C7.25 7.33579 6.91421 7 6.5 7C6.08579 7 5.75 7.33579 5.75 7.75L5.75 12.25C5.75 12.6642 6.08579 13 6.5 13C6.91421 13 7.25 12.6642 7.25 12.25L7.25 7.75ZM10.25 7.75C10.25 7.33579 9.91421 7 9.5 7C9.08579 7 8.75 7.33579 8.75 7.75L8.75 12.25C8.75 12.6642 9.08579 13 9.5 13C9.91421 13 10.25 12.6642 10.25 12.25L10.25 7.75Z" fill="rgb(220,64,103)" fill-rule="evenodd" />
</svg>
